<svg width="48" height="48" viewBox="0 0 48 48" xmlns="http://www.w3.org/2000/svg">
  <path fill="#EA4335" d="M24 9.5c3.54 0 6.7 1.22 9.18 3.6l6.85-6.85C35.9 2.38 30.47 0 24 0 14.64 0 6.6 5.38 2.7 13.22l7.98 6.19C12.6 13.5 17.87 9.5 24 9.5z"></path>
  <path fill="#4285F4" d="M46.1 24.5c0-1.64-.15-3.21-.43-4.74H24v9h12.5c-.54 2.9-2.18 5.36-4.64 7.04l7.18 5.6C43.5 37.02 46.1 31.3 46.1 24.5z"></path>
  <path fill="#FBBC05" d="M10.68 28.41c-.48-1.44-.76-2.97-.76-4.41s.27-2.97.76-4.41l-7.98-6.19C.99 16.23 0 20.02 0 24s.99 7.77 2.7 10.6l7.98-6.19z"></path>
  <path fill="#34A853" d="M24 48c6.48 0 11.93-2.13 15.9-5.81l-7.18-5.6c-1.99 1.34-4.53 2.13-8.72 2.13-6.13 0-11.4-4-13.32-9.41l-7.98 6.19C6.6 42.62 14.64 48 24 48z"></path>
</svg>
